<svg width="150" height="60" viewBox="0 0 150 60" fill="none" xmlns="http://www.w3.org/2000/svg">
<g id="Capa_1" clip-path="url(#clip0_6110_1979)">
<path id="Vector" d="M78.757 7.91506C76.4269 7.91506 73.0403 8.39843 69.9635 9.14669V31.1335H74.8002V12.4016C76.1186 12.1816 77.482 12.0499 78.6253 12.0499C83.462 12.0499 84.6054 13.7215 84.6054 17.1949V31.135H89.4421V16.3599C89.4421 11.0398 86.8486 7.91655 78.757 7.91655V7.91506ZM20.0518 26.9986C18.7319 27.262 17.2817 27.4386 16.0067 27.4386C9.32328 27.4386 5.10161 23.5686 5.10161 15.6984C5.10161 8.48673 9.01499 4.39676 16.2267 4.39676C19.305 4.39676 21.7234 4.92502 23.8784 5.62839C24.3183 4.26506 24.67 2.63835 24.7583 1.18673C22.4716 0.395079 19.6133 0 16.2282 0C5.93667 0 0 5.71668 0 15.8735C0 25.1953 5.4084 31.8353 15.6535 31.8353C18.9518 31.8353 22.4686 31.2188 24.9753 30.2086V14.5551H20.0503V26.9986H20.0518ZM103.91 7.91506C96.2153 7.91506 93.1804 13.1035 93.1804 19.6552C93.1804 27.1752 97.0938 31.6602 105.185 31.6602C107.78 31.6602 110.11 31.2652 112.309 30.2535C112.617 28.8019 112.88 27.1318 113.057 25.8568C110.639 26.9567 107.955 27.5284 105.317 27.5284C101.009 27.5284 98.722 25.6368 98.1054 21.7249H113.539C113.714 20.4499 113.802 19.3499 113.802 17.9866C113.802 12.4465 110.812 7.91655 103.909 7.91655L103.91 7.91506ZM98.0186 17.6768C98.4137 13.9385 100.217 11.9601 103.647 11.9601C107.077 11.9601 108.924 14.0717 108.924 17.6768H98.0186ZM129.812 12.7952C130.032 11.5202 130.164 10.1568 130.252 8.66182H122.6V0.351681C121.105 0.351681 119.259 0.571668 117.764 1.05504V24.1403C117.764 29.5053 120.754 31.6587 125.459 31.6587C126.822 31.6587 128.229 31.4836 129.549 30.9554C129.812 29.6803 129.989 28.1853 130.12 26.8654C129.065 27.2605 127.745 27.5254 126.339 27.5254C124.009 27.5254 122.602 26.4254 122.602 23.5671V12.7937H129.814L129.812 12.7952ZM66.0052 12.7952C66.2252 11.5202 66.3569 10.1568 66.4452 8.66182H58.7935V0.351681C57.2985 0.351681 55.4518 0.571668 53.9568 1.05504V24.1403C53.9568 29.5053 56.9468 31.6587 61.6518 31.6587C63.0152 31.6587 64.4219 31.4836 65.7418 30.9554C66.0052 29.6803 66.1818 28.1853 66.3135 26.8654C65.2584 27.2605 63.9385 27.5254 62.5318 27.5254C60.2017 27.5254 58.795 26.4254 58.795 23.5671V12.7937H66.0067L66.0052 12.7952ZM40.1036 7.91506C32.4085 7.91506 29.3736 13.1035 29.3736 19.6552C29.3736 27.1752 33.2869 31.6602 41.3786 31.6602C43.9735 31.6602 46.3036 31.2652 48.502 30.2535C48.8103 28.8019 49.0737 27.1318 49.2502 25.8568C46.8319 26.9567 44.1486 27.5284 41.5103 27.5284C37.2018 27.5284 34.9151 25.6368 34.2986 21.7249H49.7321C49.9072 20.4499 49.9955 19.3499 49.9955 17.9866C49.9955 12.4465 47.0055 7.91655 40.1021 7.91655L40.1036 7.91506ZM34.2118 17.6768C34.6069 13.9385 36.4102 11.9601 39.8402 11.9601C43.2702 11.9601 45.1169 14.0717 45.1169 17.6768H34.2118ZM147.532 12.7952H150.001V10.3259H147.532V12.7952ZM147.532 7.85819H150.001V5.38894H147.532V7.85819ZM142.595 2.92119H145.064V0.453443H142.595V2.92269V2.92119ZM137.658 12.7952H140.127V10.3259H137.658V12.7952ZM142.595 7.85819H145.064V5.38894H142.595V7.85819ZM147.532 0.453443V2.92269H150.001V0.453443H147.532ZM137.658 7.85819H140.127V5.38894H137.658V7.85819ZM137.658 2.92119H140.127V0.453443H137.658V2.92269V2.92119ZM142.595 12.7952H145.064V10.3259H142.595V12.7952Z" fill="#EC0000"/>
<g id="Group">
<path id="Vector_2" d="M58.1562 48.3718C58.1337 47.8465 57.9871 47.3257 57.7147 46.8543L55.3173 42.7015C55.1347 42.3842 55.0075 42.046 54.9372 41.6958L54.8369 41.8709C54.2428 42.899 54.2428 44.1651 54.8369 45.1932L56.7554 48.5155C57.3495 49.5436 57.3495 50.8096 56.7554 51.8377L56.6552 52.0113C56.5848 51.6626 56.4591 51.3244 56.275 51.0072L54.5181 47.9662L53.3972 46.0238C53.2147 45.7065 53.0875 45.3683 53.0171 45.0196L52.9169 45.1932C52.3257 46.2168 52.3227 47.4799 52.9109 48.505L54.8354 51.8377C55.428 52.8643 55.428 54.1319 54.8354 55.16L54.7351 55.3336C54.6648 54.9849 54.5376 54.6467 54.355 54.3294L51.9576 50.1766C51.6358 49.6184 51.4892 48.9913 51.5161 48.3703C48.9496 49.0422 47.1777 50.4654 47.1777 52.1131C47.1777 54.4072 50.6077 56.2659 54.8354 56.2659C59.063 56.2659 62.493 54.4072 62.493 52.1131C62.493 50.4639 60.7212 49.0407 58.1532 48.3703M65.3858 55.4638C65.4157 54.8726 65.501 54.4716 65.6597 54.0107C66.4648 54.3833 67.5004 54.5718 68.292 54.5718C69.6284 54.5718 70.3767 54.1409 70.3767 53.2908C70.3767 52.4408 69.8319 52.0697 68.4776 51.4801L67.7443 51.1628C66.393 50.5732 65.4711 49.8099 65.4711 48.2865C65.4711 46.6463 66.6085 45.5973 68.9385 45.5973C69.8739 45.5973 70.7508 45.726 71.5709 46.0148C71.5275 46.5909 71.4272 47.0354 71.2836 47.4529C70.5069 47.1656 69.5865 47.0369 68.9251 47.0369C67.674 47.0369 67.0978 47.5263 67.0978 48.288C67.0978 49.0497 67.659 49.4672 68.6662 49.8982L69.4444 50.229C71.2701 51.0057 72.0333 51.8242 72.0333 53.2205C72.0333 54.8741 70.7822 56.01 68.3369 56.01C67.1577 56.01 66.1939 55.8379 65.3873 55.4638M79.7553 48.5888V55.7795H78.3022L78.2154 54.9175C77.8129 55.5506 77.1948 55.9531 76.1891 55.9531C74.2901 55.9531 73.024 54.5718 73.024 52.1565C73.024 49.7411 74.3769 48.1862 77.0377 48.1862C78.0733 48.1862 78.9218 48.3015 79.7553 48.5888ZM78.172 54.1409V49.6244C77.8413 49.5675 77.4821 49.5376 77.0362 49.5376C75.396 49.5376 74.6343 50.5447 74.6343 52.155C74.6343 53.6216 75.2239 54.6571 76.6336 54.6571C77.2532 54.6571 77.756 54.4566 78.172 54.1394M87.853 50.9473V55.778H86.2711V51.2197C86.2711 50.0838 85.897 49.5376 84.3137 49.5376C83.9411 49.5376 83.4951 49.581 83.0641 49.6513V55.778H81.4823V48.5873C82.4895 48.3434 83.5969 48.1847 84.3586 48.1847C87.0059 48.1847 87.853 49.2054 87.853 50.9473ZM92.2407 54.6003C92.7002 54.6003 93.1327 54.5135 93.4784 54.3833C93.4335 54.8158 93.3766 55.3051 93.2898 55.7212C92.8588 55.8948 92.3979 55.9516 91.9519 55.9516C90.4135 55.9516 89.4348 55.2483 89.4348 53.4929V45.9415C89.9241 45.7843 90.5287 45.7125 91.0166 45.7125V48.4302H93.5203C93.4918 48.9195 93.4484 49.364 93.3766 49.783H91.0181V53.3073C91.0181 54.2411 91.479 54.6018 92.2407 54.6018M100.727 48.5888V55.7795H99.2743L99.189 54.9175C98.785 55.5506 98.1669 55.9531 97.1598 55.9531C95.2622 55.9531 93.9961 54.5718 93.9961 52.1565C93.9961 49.7411 95.3475 48.1862 98.0083 48.1862C99.0439 48.1862 99.8924 48.3015 100.727 48.5888ZM99.1457 54.1409V49.6244C98.8134 49.5675 98.4558 49.5376 98.0083 49.5376C96.3681 49.5376 95.6064 50.5447 95.6064 52.155C95.6064 53.6216 96.196 54.6571 97.6057 54.6571C98.2238 54.6571 98.7281 54.4566 99.1457 54.1394M108.825 50.9473V55.778H107.243V51.2197C107.243 50.0838 106.869 49.5376 105.287 49.5376C104.913 49.5376 104.467 49.581 104.035 49.6513V55.778H102.453V48.5873C103.46 48.3434 104.568 48.1847 105.329 48.1847C107.975 48.1847 108.824 49.2054 108.824 50.9473M116.852 45.711V55.778H115.401L115.314 54.8592C114.911 55.5341 114.293 55.9516 113.258 55.9516C111.359 55.9516 110.093 54.5704 110.093 52.155C110.093 49.7396 111.445 48.1847 114.106 48.1847C114.522 48.1847 114.911 48.2281 115.286 48.3V45.925C115.773 45.7529 116.335 45.7095 116.852 45.7095M115.286 54.1109V49.6812C114.868 49.5944 114.437 49.5376 114.02 49.5376C112.453 49.5376 111.703 50.5148 111.703 52.155C111.703 53.6216 112.294 54.6571 113.704 54.6571C114.337 54.6571 114.855 54.4416 115.286 54.1109ZM124.806 52.7012H119.757C119.959 53.9807 120.706 54.6003 122.117 54.6003C122.981 54.6003 123.858 54.4117 124.649 54.0541C124.591 54.4716 124.506 55.0178 124.405 55.4922C123.685 55.8229 122.924 55.9516 122.075 55.9516C119.428 55.9516 118.148 54.4851 118.148 52.0248C118.148 49.8818 119.141 48.1847 121.658 48.1847C123.916 48.1847 124.895 49.6663 124.895 51.4786C124.895 51.9245 124.865 52.2837 124.808 52.6997M119.729 51.3783H123.296C123.296 50.1975 122.663 49.5076 121.569 49.5076C120.475 49.5076 119.857 50.1556 119.729 51.3783ZM130.345 48.2431C130.345 48.7175 130.287 49.2936 130.2 49.5959C129.827 49.5525 129.452 49.5391 129.007 49.5391C128.619 49.5391 128.23 49.569 127.843 49.6259V55.781H126.259V48.5903C126.934 48.3598 128.072 48.1877 128.964 48.1877C129.452 48.1877 129.999 48.2012 130.345 48.2446" fill="#EC0000"/>
<g id="Group_2">
<path id="Vector_3" d="M35.7278 52.9571C35.7278 54.6841 34.5709 55.781 32.3471 55.781H29.4648V45.6541C30.1532 45.5374 31.0018 45.4491 31.747 45.4491C34.2342 45.4491 35.2893 46.4009 35.2893 48.0545C35.2893 49.2398 34.6009 50.0599 33.5773 50.425C34.9675 50.7468 35.7278 51.7569 35.7278 52.9571ZM31.7186 46.0926C31.2068 46.0926 30.68 46.136 30.1817 46.1944V50.1601H32.2304C33.6207 50.1601 34.5724 49.4134 34.5724 48.1264C34.5724 46.8394 33.7524 46.0926 31.7186 46.0926ZM34.996 52.9421C34.996 51.6536 34.0591 50.8051 32.2888 50.8051H30.1817V55.151H32.2888C34.0442 55.151 34.996 54.3309 34.996 52.9406V52.9421Z" fill="#EC0000"/>
<path id="Vector_4" d="M42.9708 48.5514L40.0586 56.7178C39.4585 58.3715 38.83 59.0599 37.6881 59.0599C37.513 59.0599 37.3364 59.0449 37.1898 59.0015C37.1898 58.7815 37.2047 58.5765 37.2332 58.4014C37.3499 58.4164 37.4966 58.4299 37.6283 58.4299C38.4618 58.4299 38.9886 57.9914 39.5453 56.3377L36.5747 48.5529H37.3364L39.8835 55.4742L42.254 48.5529H42.9708V48.5514Z" fill="#EC0000"/>
</g>
</g>
</g>
<defs>
<clipPath id="clip0_6110_1979">
<rect width="150" height="59.0584" fill="white"/>
</clipPath>
</defs>
</svg>
