<svg width="32" height="33" viewBox="0 0 32 33" fill="none" xmlns="http://www.w3.org/2000/svg">
<path d="M16.7127 26.5459L26.8377 16.4209C29.3252 13.9209 29.6877 9.8334 27.3377 7.2209C26.7483 6.56254 26.0309 6.03125 25.2293 5.6595C24.4277 5.28776 23.5587 5.08336 22.6754 5.05879C21.7921 5.03422 20.9131 5.19 20.0921 5.51662C19.271 5.84323 18.5252 6.33382 17.9002 6.9584L16.0002 8.8709L14.3627 7.2209C11.8627 4.7334 7.77517 4.3709 5.16267 6.7209C4.50431 7.31026 3.97302 8.02766 3.60128 8.82927C3.22953 9.63089 3.02513 10.4999 3.00056 11.3832C2.97599 12.2664 3.13177 13.1455 3.45839 13.9665C3.785 14.7875 4.27559 15.5334 4.90017 16.1584L15.2877 26.5459C15.4773 26.7337 15.7333 26.839 16.0002 26.839C16.267 26.839 16.5231 26.7337 16.7127 26.5459V26.5459Z" stroke="#0879CA" stroke-width="1.5" stroke-linecap="round" stroke-linejoin="round"/>
</svg>
