<svg width="32" height="33" viewBox="0 0 32 33" fill="none" xmlns="http://www.w3.org/2000/svg">
<path d="M8.00017 27.0584C7.73496 27.0584 7.4806 26.953 7.29307 26.7655C7.10553 26.578 7.00017 26.3236 7.00017 26.0584V20.7209C6.45156 20.9826 5.84355 21.0947 5.23767 21.0459C4.72467 21.0082 4.22627 20.8579 3.77796 20.6057C3.32965 20.3535 2.94245 20.0055 2.64391 19.5866C2.34537 19.1677 2.14284 18.6882 2.05072 18.1821C1.9586 17.676 1.97917 17.1559 2.11095 16.6586C2.24273 16.1614 2.48249 15.6993 2.81317 15.3053C3.14385 14.9113 3.55731 14.595 4.02413 14.379C4.49095 14.1629 4.99966 14.0524 5.51404 14.0554C6.02842 14.0583 6.53584 14.1746 7.00017 14.3959V9.0584C7.00017 8.79318 7.10553 8.53883 7.29307 8.35129C7.4806 8.16376 7.73496 8.0584 8.00017 8.0584H13.8377C13.576 7.50979 13.4639 6.90177 13.5127 6.2959C13.5504 5.78289 13.7007 5.2845 13.9529 4.83619C14.2051 4.38788 14.5531 4.00068 14.972 3.70214C15.3909 3.4036 15.8704 3.20107 16.3765 3.10895C16.8826 3.01683 17.4027 3.03739 17.8999 3.16918C18.3972 3.30096 18.8592 3.54072 19.2532 3.8714C19.6473 4.20208 19.9635 4.61554 20.1796 5.08236C20.3956 5.54918 20.5061 6.05789 20.5032 6.57227C20.5003 7.08665 20.384 7.59407 20.1627 8.0584H26.0002C26.2654 8.0584 26.5197 8.16376 26.7073 8.35129C26.8948 8.53883 27.0002 8.79318 27.0002 9.0584V14.3959C26.4516 14.1342 25.8435 14.0221 25.2377 14.0709C24.7247 14.1086 24.2263 14.2589 23.778 14.5111C23.3297 14.7633 22.9425 15.1113 22.6439 15.5302C22.3454 15.9491 22.1428 16.4286 22.0507 16.9347C21.9586 17.4408 21.9792 17.9609 22.111 18.4582C22.2427 18.9554 22.4825 19.4175 22.8132 19.8115C23.1438 20.2055 23.5573 20.5218 24.0241 20.7378C24.491 20.9539 24.9997 21.0644 25.514 21.0614C26.0284 21.0585 26.5358 20.9422 27.0002 20.7209V26.0584C27.0002 26.3236 26.8948 26.578 26.7073 26.7655C26.5197 26.953 26.2654 27.0584 26.0002 27.0584H8.00017Z" stroke="#0879CA" stroke-width="1.5" stroke-linecap="round" stroke-linejoin="round"/>
</svg>
